<svg width="78" height="81" viewBox="0 0 78 81" fill="none" xmlns="http://www.w3.org/2000/svg">
<path d="M26.0891 61.0781C26.0891 61.3906 25.7274 61.6406 25.2714 61.6406C24.7524 61.6875 24.3907 61.4375 24.3907 61.0781C24.3907 60.7656 24.7524 60.5156 25.2085 60.5156C25.6802 60.4687 26.0891 60.7188 26.0891 61.0781ZM21.1984 60.375C21.0883 60.6875 21.4028 61.0469 21.8746 61.1406C22.2835 61.2969 22.7552 61.1406 22.8496 60.8281C22.944 60.5156 22.6452 60.1562 22.1734 60.0156C21.7645 59.9062 21.3085 60.0625 21.1984 60.375ZM28.1492 60.1094C27.6931 60.2188 27.3786 60.5156 27.4258 60.875C27.473 61.1875 27.8819 61.3906 28.3536 61.2812C28.8097 61.1719 29.1242 60.875 29.077 60.5625C29.0298 60.2656 28.6052 60.0625 28.1492 60.1094ZM38.4968 0.234375C16.6851 0.234375 0 16.6875 0 38.3594C0 55.6875 10.9766 70.5156 26.6552 75.7344C28.6681 76.0938 29.3758 74.8594 29.3758 73.8438C29.3758 72.875 29.3286 67.5312 29.3286 64.25C29.3286 64.25 18.3206 66.5938 16.0089 59.5938C16.0089 59.5938 14.2161 55.0469 11.6371 53.875C11.6371 53.875 8.03589 51.4219 11.8887 51.4688C11.8887 51.4688 15.8044 51.7813 17.9589 55.5C21.4028 61.5312 27.1742 59.7969 29.423 58.7656C29.7847 56.2656 30.8069 54.5312 31.9391 53.5C23.1484 52.5312 14.279 51.2656 14.279 36.2344C14.279 31.9375 15.4742 29.7812 17.9903 27.0312C17.5815 26.0156 16.2448 21.8281 18.3992 16.4219C21.6859 15.4062 29.25 20.6406 29.25 20.6406C32.3952 19.7656 35.7762 19.3125 39.1258 19.3125C42.4754 19.3125 45.8565 19.7656 49.0016 20.6406C49.0016 20.6406 56.5657 15.3906 59.8524 16.4219C62.0069 21.8438 60.6702 26.0156 60.2613 27.0312C62.7774 29.7969 64.3186 31.9531 64.3186 36.2344C64.3186 51.3125 55.056 52.5156 46.2653 53.5C47.7121 54.7344 48.9387 57.0781 48.9387 60.75C48.9387 66.0156 48.8915 72.5312 48.8915 73.8125C48.8915 74.8281 49.6149 76.0625 51.6121 75.7031C67.3379 70.5156 78 55.6875 78 38.3594C78 16.6875 60.3085 0.234375 38.4968 0.234375ZM15.2855 54.125C15.081 54.2812 15.1282 54.6406 15.3956 54.9375C15.6472 55.1875 16.0089 55.2969 16.2133 55.0938C16.4177 54.9375 16.3706 54.5781 16.1032 54.2812C15.8516 54.0312 15.4899 53.9219 15.2855 54.125ZM13.5871 52.8594C13.477 53.0625 13.6343 53.3125 13.9488 53.4688C14.2004 53.625 14.5149 53.5781 14.625 53.3594C14.7351 53.1562 14.5778 52.9062 14.2633 52.75C13.9488 52.6562 13.6972 52.7031 13.5871 52.8594ZM18.6823 58.4219C18.4306 58.625 18.525 59.0938 18.8867 59.3906C19.2484 59.75 19.7044 59.7969 19.9089 59.5469C20.1133 59.3438 20.019 58.875 19.7044 58.5781C19.3585 58.2188 18.8867 58.1719 18.6823 58.4219ZM16.8895 56.125C16.6379 56.2812 16.6379 56.6875 16.8895 57.0469C17.1411 57.4062 17.5657 57.5625 17.7702 57.4062C18.0218 57.2031 18.0218 56.7969 17.7702 56.4375C17.55 56.0781 17.1411 55.9219 16.8895 56.125Z" fill="#FAFAFA"/>
</svg>
