<svg width="47" height="54" viewBox="0 0 47 54" fill="none" xmlns="http://www.w3.org/2000/svg">
<g clip-path="url(#clip0_20_136)">
<path d="M38.8904 10.1355C36.3096 4.16602 30.3926 0 23.5 0C16.6074 0 10.6904 4.16602 8.1096 10.1355C6.38906 10.2832 5.03571 11.7281 5.03571 13.5V20.25C5.03571 22.0219 6.38906 23.4668 8.1096 23.6145C10.6904 29.584 16.6074 33.75 23.5 33.75C30.3926 33.75 36.3096 29.584 38.8904 23.6145C40.6109 23.4668 41.9643 22.0219 41.9643 20.25V13.5C41.9643 11.7281 40.6109 10.2832 38.8904 10.1355ZM35.25 15.1875V16.875C35.25 22.4648 30.7388 27 25.1786 27H21.8214C16.2612 27 11.75 22.4648 11.75 16.875V15.1875C11.75 12.3926 14.0056 10.125 16.7857 10.125H30.2143C32.9944 10.125 35.25 12.3926 35.25 15.1875ZM19.8596 17.1598L19.2301 14.9238C19.1357 14.5758 18.821 14.3438 18.4643 14.3438C18.1076 14.3438 17.7929 14.5758 17.6984 14.9238L17.069 17.1598L14.8449 17.7926C14.4987 17.8875 14.2679 18.2039 14.2679 18.5625C14.2679 18.9211 14.4987 19.2375 14.8449 19.3324L17.069 19.9652L17.6984 22.2012C17.7929 22.5492 18.1076 22.7812 18.4643 22.7812C18.821 22.7812 19.1357 22.5492 19.2301 22.2012L19.8596 19.9652L22.0837 19.3324C22.4299 19.2375 22.6607 18.9211 22.6607 18.5625C22.6607 18.2039 22.4299 17.8875 22.0837 17.7926L19.8596 17.1598ZM11.8234 33.3809C4.89933 36.1336 0 42.9258 0 50.8676C0 52.5973 1.39531 54 3.11585 54H13.4286V47.25C13.4286 45.3832 14.9288 43.875 16.7857 43.875H30.2143C32.0712 43.875 33.5714 45.3832 33.5714 47.25V54H43.8842C45.6047 54 47 52.5973 47 50.8676C47 42.9258 42.1007 36.1336 35.1766 33.3809C31.8824 35.7328 27.8538 37.125 23.5 37.125C19.1462 37.125 15.1176 35.7328 11.8234 33.3809ZM18.4643 47.25C17.5411 47.25 16.7857 48.0094 16.7857 48.9375V54H20.1429V48.9375C20.1429 48.0094 19.3875 47.25 18.4643 47.25ZM28.5357 50.625C28.9809 50.625 29.4079 50.4472 29.7226 50.1307C30.0374 49.8143 30.2143 49.3851 30.2143 48.9375C30.2143 48.4899 30.0374 48.0607 29.7226 47.7443C29.4079 47.4278 28.9809 47.25 28.5357 47.25C28.0905 47.25 27.6636 47.4278 27.3488 47.7443C27.034 48.0607 26.8571 48.4899 26.8571 48.9375C26.8571 49.3851 27.034 49.8143 27.3488 50.1307C27.6636 50.4472 28.0905 50.625 28.5357 50.625Z" fill="#FAFAFA"/>
</g>
<defs>
<clipPath id="clip0_20_136">
<rect width="47" height="54" fill="white"/>
</clipPath>
</defs>
</svg>
