<svg width="39" height="52" viewBox="0 0 39 52" fill="none" xmlns="http://www.w3.org/2000/svg">
<path d="M25.0714 0H13.9286H11.1429C9.60201 0 8.35714 1.45234 8.35714 3.25C8.35714 5.04766 9.60201 6.5 11.1429 6.5V19.9875C11.1429 21.1859 10.8556 22.3742 10.3158 23.3898L0.896652 41.2547C0.313393 42.3719 0 43.6414 0 44.9516C0 48.8414 2.70737 52 6.04152 52H32.9585C36.2926 52 39 48.8414 39 44.9516C39 43.6516 38.6866 42.3719 38.1034 41.2547L28.6842 23.4C28.1444 22.3742 27.8571 21.1961 27.8571 19.9977V6.5C29.398 6.5 30.6429 5.04766 30.6429 3.25C30.6429 1.45234 29.398 0 27.8571 0H25.0714ZM16.7143 19.9875V6.5H22.2857V19.9875C22.2857 22.3945 22.8603 24.7508 23.9397 26.8023L26.9431 32.5H12.0569L15.0603 26.8023C16.1397 24.7508 16.7143 22.3945 16.7143 19.9875Z" fill="#FAFAFA"/>
</svg>
