<svg width="102" height="43" viewBox="0 0 102 43" fill="none" xmlns="http://www.w3.org/2000/svg">
<g clip-path="url(#clip0_20_153)">
<path d="M17.7544 21.5316L18.6787 31.8148L17.7544 42.6201C17.7066 43.0156 17.4037 43.3162 17.0531 43.3162C16.7025 43.3162 16.3838 43.0156 16.3838 42.6201L15.4912 31.8148L16.3838 21.5316C16.3838 21.1836 16.6866 20.8672 17.0531 20.8672C17.4037 20.8672 17.7066 21.1836 17.7544 21.5316ZM21.165 14.3176C20.7188 14.3176 20.4159 14.6656 20.3681 15.1086L19.5713 31.8148L20.3681 42.6201C20.4159 43.0631 20.7188 43.4111 21.165 43.4111C21.5634 43.4111 21.9141 43.0631 21.9141 42.6201L22.8384 31.8148L21.9141 15.1086C21.9141 14.6656 21.5634 14.3176 21.165 14.3176ZM25.2291 10.5049C24.735 10.5049 24.3844 10.8529 24.3366 11.3434L23.6353 31.9098L24.3366 42.6359C24.3844 43.1264 24.735 43.4744 25.2291 43.4744C25.6753 43.4744 26.0737 43.1264 26.0737 42.6359L26.9184 31.9098L26.0737 11.3434C26.0737 10.8529 25.6753 10.5049 25.2291 10.5049ZM1.1475 25.7873C0.924375 25.7873 0.796875 25.9613 0.749062 26.1828L0 31.8148L0.749062 37.3519C0.796875 37.5734 0.924375 37.7475 1.1475 37.7475C1.37062 37.7475 1.49812 37.5734 1.54594 37.3519L2.43844 31.8148L1.54594 26.1828C1.49812 25.9613 1.37062 25.7873 1.1475 25.7873ZM4.90875 22.3227C4.68562 22.3227 4.51031 22.4967 4.51031 22.7182L3.49031 31.8148L4.51031 40.69C4.51031 40.959 4.68562 41.133 4.90875 41.133C5.13187 41.133 5.30719 40.959 5.355 40.7375L6.5025 31.8148L5.355 22.7182C5.30719 22.4967 5.13187 22.3227 4.90875 22.3227ZM8.94094 20.5191C8.67 20.5191 8.44687 20.7406 8.415 21.0412L7.49062 31.8148L8.415 42.2246C8.46281 42.4935 8.68594 42.715 8.94094 42.715C9.21187 42.715 9.435 42.4935 9.435 42.2246L10.5347 31.8148L9.435 21.0412C9.435 20.7406 9.21187 20.5191 8.94094 20.5191ZM12.9731 20.1711C12.6703 20.1711 12.3994 20.3926 12.3994 20.7406L11.475 31.8148L12.3994 42.541C12.3994 42.8891 12.6703 43.1105 12.9731 43.1105C13.2759 43.1105 13.5469 42.8891 13.5947 42.541L14.6147 31.8148L13.5947 20.7406C13.5469 20.3926 13.2759 20.1711 12.9731 20.1711ZM51.4462 2.62637C51.2709 2.49981 51 2.40488 50.7769 2.40488C50.4263 2.40488 50.1075 2.53145 49.8844 2.70547C49.5816 2.97441 49.3903 3.36992 49.3584 3.76543V3.89199L48.8325 31.8465L49.1034 36.9881L49.3744 42.0031C49.4222 42.7467 50.0438 43.3637 50.7928 43.3637C51.5419 43.3637 52.1634 42.7467 52.1634 42.0031L52.785 31.8465L52.1634 3.76543C52.0997 3.29082 51.8447 2.84785 51.4462 2.62637ZM47.1909 5.04688C46.9678 4.92031 46.7447 4.82539 46.4897 4.82539C46.2347 4.82539 45.9956 4.92031 45.7884 5.04688C45.4378 5.26836 45.2147 5.66387 45.2147 6.10684L45.1669 6.37578L44.7206 31.8148C44.7206 31.8148 44.7206 31.8623 45.2147 42.193V42.2404C45.2147 42.5094 45.3103 42.7625 45.4856 42.984C45.7566 43.2846 46.1072 43.4744 46.5056 43.4744C46.8562 43.4744 47.175 43.3004 47.3981 43.0789C47.6691 42.8574 47.7966 42.5568 47.7966 42.193L47.8444 41.133L48.3384 31.8623L47.8125 6.10684C47.7647 5.66387 47.5416 5.26836 47.1909 5.04688ZM29.4366 8.60645C28.9425 8.60645 28.5122 9.04941 28.5122 9.57148L27.8109 31.8148L28.5122 42.4461C28.56 42.9682 28.9584 43.3637 29.4366 43.3637C29.9625 43.3637 30.3609 42.9682 30.4088 42.4461L31.2056 31.8148L30.4088 9.57148C30.3769 9.04941 29.9784 8.60645 29.4366 8.60645ZM89.4731 18.5416C87.7519 18.5416 86.1103 18.8896 84.5962 19.5066C83.5762 8.30586 74.1094 -0.490234 62.5547 -0.490234C59.7178 -0.490234 56.9766 0.0318362 54.5381 0.996875C53.5659 1.34492 53.295 1.69297 53.295 2.45234V41.9557C53.295 42.7467 53.9166 43.3162 54.6656 43.4111H89.4572C96.3581 43.4111 101.984 37.874 101.984 31.0238C102 24.1262 96.3741 18.5416 89.4731 18.5416ZM42.1866 9.00195C41.5172 9.00195 40.9912 9.52402 40.9434 10.2359L40.4175 31.8623L40.9434 42.2404C40.9912 42.9049 41.5172 43.4269 42.1866 43.4269C42.8559 43.4269 43.3819 42.9049 43.3819 42.2404L44.0034 31.8623L43.3819 10.2359C43.3341 9.52402 42.8559 9.00195 42.1866 9.00195ZM33.6441 7.76797C33.1181 7.76797 32.6241 8.2584 32.6241 8.82793L32.0025 31.8148L32.6241 42.3986C32.6719 42.9682 33.1181 43.4111 33.6441 43.4111C34.2178 43.4111 34.6641 42.9682 34.7119 42.3986L35.4131 31.8148L34.7119 8.82793C34.6641 8.2584 34.2178 7.76797 33.6441 7.76797ZM37.8994 8.30586C37.2778 8.30586 36.7997 8.79629 36.7997 9.39746L36.1781 31.8148L36.7997 42.3195C36.8475 42.9365 37.2938 43.4111 37.8994 43.4111C38.505 43.4111 38.9991 42.9207 38.9991 42.3195L39.6684 31.8148L38.9991 9.39746C38.9991 8.78047 38.5209 8.30586 37.8994 8.30586Z" fill="#FAFAFA"/>
</g>
<defs>
<clipPath id="clip0_20_153">
<rect width="102" height="43" fill="white"/>
</clipPath>
</defs>
</svg>
