<svg width="37" height="37" viewBox="0 0 37 37" fill="none" xmlns="http://www.w3.org/2000/svg">
<path d="M30.0625 15.0312C30.0625 18.3482 28.9857 21.4123 27.1719 23.8982L36.3207 33.0543C37.224 33.9576 37.224 35.4246 36.3207 36.3279C35.4174 37.2313 33.9504 37.2313 33.0471 36.3279L23.8982 27.1719C21.4123 28.993 18.3482 30.0625 15.0312 30.0625C6.72793 30.0625 0 23.3346 0 15.0312C0 6.72793 6.72793 0 15.0312 0C23.3346 0 30.0625 6.72793 30.0625 15.0312ZM15.0312 25.4375C16.3978 25.4375 17.751 25.1683 19.0135 24.6454C20.2761 24.1224 21.4233 23.3559 22.3896 22.3896C23.3559 21.4233 24.1224 20.2761 24.6454 19.0135C25.1683 17.751 25.4375 16.3978 25.4375 15.0312C25.4375 13.6647 25.1683 12.3115 24.6454 11.049C24.1224 9.78641 23.3559 8.63923 22.3896 7.67292C21.4233 6.70661 20.2761 5.94009 19.0135 5.41713C17.751 4.89417 16.3978 4.625 15.0312 4.625C13.6647 4.625 12.3115 4.89417 11.049 5.41713C9.78641 5.94009 8.63923 6.70661 7.67292 7.67292C6.70661 8.63923 5.94009 9.78641 5.41713 11.049C4.89417 12.3115 4.625 13.6647 4.625 15.0312C4.625 16.3978 4.89417 17.751 5.41713 19.0135C5.94009 20.2761 6.70661 21.4233 7.67292 22.3896C8.63923 23.3559 9.78641 24.1224 11.049 24.6454C12.3115 25.1683 13.6647 25.4375 15.0312 25.4375Z" fill="#FAFAFA"/>
</svg>
