<svg width="71" height="71" viewBox="0 0 71 71" fill="none" xmlns="http://www.w3.org/2000/svg">
<path d="M69.2111 0.873309C70.3344 1.70534 71 3.03659 71 4.43718V14.4216V51.0309C71 57.1602 65.0371 62.1247 57.6875 62.1247C50.3379 62.1247 44.375 57.1602 44.375 51.0309C44.375 44.9016 50.3379 39.9372 57.6875 39.9372C59.2406 39.9372 60.7383 40.1591 62.125 40.5751V20.3844L26.625 31.0344V59.9059C26.625 66.0352 20.6621 70.9997 13.3125 70.9997C5.96289 70.9997 0 66.0352 0 59.9059C0 53.7766 5.96289 48.8122 13.3125 48.8122C14.8656 48.8122 16.3633 49.0341 17.75 49.4501V27.7341V17.7497C17.75 15.7944 19.0396 14.061 20.9117 13.4924L65.2867 0.17995C66.6318 -0.222199 68.0879 0.0274108 69.2111 0.873309Z" fill="#C2B061"/>
</svg>
