<svg width="1555" height="850" viewBox="0 0 1555 850" fill="none" xmlns="http://www.w3.org/2000/svg">
<rect opacity="0.5" x="-0.571349" y="0.154916" width="94.2907" height="760.847" rx="47.1453" transform="matrix(0.360136 -0.9329 0.782058 0.623205 -0.486739 375.985)" fill="#ABB573" stroke="#FAFAFA" stroke-width="1.00044"/>
<rect opacity="0.5" x="0.191773" y="-0.681836" width="92.2535" height="742.096" rx="46.1267" transform="matrix(0.488167 0.87275 -0.871543 0.49032 1228.84 153.637)" fill="#ABB573" stroke="#FAFAFA" stroke-width="1.00044"/>
<g opacity="0.2">
<mask id="path-3-outside-1_14_67" maskUnits="userSpaceOnUse" x="1330.07" y="-2.04711" width="240.022" height="617.373" fill="black">
<rect fill="white" x="1330.07" y="-2.04711" width="240.022" height="617.373"/>
<path d="M1558.21 613.718C1529.17 614.755 1500.3 607.601 1473.33 592.681C1446.36 577.761 1421.84 555.378 1401.21 526.861C1380.59 498.343 1364.28 464.271 1353.26 426.665C1342.24 389.06 1336.72 348.686 1337.05 307.938C1337.38 267.19 1343.53 226.897 1355.15 189.45C1366.77 152.003 1383.62 118.164 1404.7 89.9391C1425.78 61.7142 1450.66 39.6785 1477.87 25.1386C1505.07 10.5987 1534.05 3.85083 1563.08 5.29504L1554.04 309.46L1558.21 613.718Z"/>
</mask>
<path d="M1558.21 613.718C1529.17 614.755 1500.3 607.601 1473.33 592.681C1446.36 577.761 1421.84 555.378 1401.21 526.861C1380.59 498.343 1364.28 464.271 1353.26 426.665C1342.24 389.06 1336.72 348.686 1337.05 307.938C1337.38 267.19 1343.53 226.897 1355.15 189.45C1366.77 152.003 1383.62 118.164 1404.7 89.9391C1425.78 61.7142 1450.66 39.6785 1477.87 25.1386C1505.07 10.5987 1534.05 3.85083 1563.08 5.29504L1554.04 309.46L1558.21 613.718Z" fill="#506700"/>
<path d="M1558.21 613.718C1529.17 614.755 1500.3 607.601 1473.33 592.681C1446.36 577.761 1421.84 555.378 1401.21 526.861C1380.59 498.343 1364.28 464.271 1353.26 426.665C1342.24 389.06 1336.72 348.686 1337.05 307.938C1337.38 267.19 1343.53 226.897 1355.15 189.45C1366.77 152.003 1383.62 118.164 1404.7 89.9391C1425.78 61.7142 1450.66 39.6785 1477.87 25.1386C1505.07 10.5987 1534.05 3.85083 1563.08 5.29504L1554.04 309.46L1558.21 613.718Z" stroke="#FAFAFA" stroke-width="2.00088" mask="url(#path-3-outside-1_14_67)"/>
</g>
</svg>
