<svg width="110" height="76" viewBox="0 0 110 76" fill="none" xmlns="http://www.w3.org/2000/svg">
<rect x="-0.141418" y="-0.743164" width="14.0097" height="77.8964" rx="7.00485" transform="matrix(0.783883 0.620908 -0.501047 0.86542 38.6258 0.209228)" fill="#ABB573" stroke="#FAFAFA"/>
<rect x="-0.646045" y="-0.0722457" width="14.3086" height="80.6597" rx="7.15428" transform="matrix(0.730493 -0.68292 0.561596 0.827411 54.9081 8.63496)" fill="#ABB573" stroke="#FAFAFA"/>
<mask id="path-3-outside-1_20_157" maskUnits="userSpaceOnUse" x="37.3342" y="1.52686" width="36" height="74" fill="black">
<rect fill="white" x="37.3342" y="1.52686" width="36" height="74"/>
<path d="M38.908 3.25433C43.1857 3.25433 47.4214 4.17609 51.3735 5.96698C55.3255 7.75787 58.9164 10.3828 61.9411 13.6919C64.9659 17.0011 67.3653 20.9296 69.0023 25.2532C70.6392 29.5768 71.4818 34.2108 71.4818 38.8906C71.4818 43.5704 70.6392 48.2044 69.0023 52.528C67.3653 56.8516 64.9659 60.7801 61.9411 64.0892C58.9164 67.3984 55.3255 70.0233 51.3735 71.8142C47.4214 73.6051 43.1857 74.5269 38.908 74.5269L38.908 38.8906L38.908 3.25433Z"/>
</mask>
<path d="M38.908 3.25433C43.1857 3.25433 47.4214 4.17609 51.3735 5.96698C55.3255 7.75787 58.9164 10.3828 61.9411 13.6919C64.9659 17.0011 67.3653 20.9296 69.0023 25.2532C70.6392 29.5768 71.4818 34.2108 71.4818 38.8906C71.4818 43.5704 70.6392 48.2044 69.0023 52.528C67.3653 56.8516 64.9659 60.7801 61.9411 64.0892C58.9164 67.3984 55.3255 70.0233 51.3735 71.8142C47.4214 73.6051 43.1857 74.5269 38.908 74.5269L38.908 38.8906L38.908 3.25433Z" fill="#506700"/>
<path d="M38.908 3.25433C43.1857 3.25433 47.4214 4.17609 51.3735 5.96698C55.3255 7.75787 58.9164 10.3828 61.9411 13.6919C64.9659 17.0011 67.3653 20.9296 69.0023 25.2532C70.6392 29.5768 71.4818 34.2108 71.4818 38.8906C71.4818 43.5704 70.6392 48.2044 69.0023 52.528C67.3653 56.8516 64.9659 60.7801 61.9411 64.0892C58.9164 67.3984 55.3255 70.0233 51.3735 71.8142C47.4214 73.6051 43.1857 74.5269 38.908 74.5269L38.908 38.8906L38.908 3.25433Z" stroke="#FAFAFA" stroke-width="2" mask="url(#path-3-outside-1_20_157)"/>
</svg>
