<svg width="45" height="51" viewBox="0 0 45 51" fill="none" xmlns="http://www.w3.org/2000/svg">
<g clip-path="url(#clip0_20_163)">
<path d="M0.5 9.875C0.5 8.14648 1.90446 6.75 3.64286 6.75H41.3571C43.0955 6.75 44.5 8.14648 44.5 9.875C44.5 11.6035 43.0955 13 41.3571 13H3.64286C1.90446 13 0.5 11.6035 0.5 9.875ZM0.5 25.5C0.5 23.7715 1.90446 22.375 3.64286 22.375H41.3571C43.0955 22.375 44.5 23.7715 44.5 25.5C44.5 27.2285 43.0955 28.625 41.3571 28.625H3.64286C1.90446 28.625 0.5 27.2285 0.5 25.5ZM44.5 41.125C44.5 42.8535 43.0955 44.25 41.3571 44.25H3.64286C1.90446 44.25 0.5 42.8535 0.5 41.125C0.5 39.3965 1.90446 38 3.64286 38H41.3571C43.0955 38 44.5 39.3965 44.5 41.125Z" fill="#FAFAFA"/>
</g>
<defs>
<clipPath id="clip0_20_163">
<rect width="44" height="50" fill="white" transform="translate(0.5 0.5)"/>
</clipPath>
</defs>
</svg>
